<svg width="67" height="67" viewBox="0 0 67 67" fill="none" xmlns="http://www.w3.org/2000/svg">
<path d="M0 0H67V67H0V0Z"/>
<path d="M54.9995 15.5741C53.3146 17.7794 50.5186 18.4744 48.7544 17.1265C46.9902 15.7786 46.9259 12.8982 48.6107 10.6929C50.2956 8.4877 53.0916 7.79269 54.8558 9.14059C56.62 10.4885 56.6843 13.3689 54.9995 15.5741Z" fill="#ADF78E"/>
<path d="M39.53 5.36C39.53 7.95022 36.5303 10.05 32.83 10.05C29.1297 10.05 26.13 7.95022 26.13 5.36C26.13 2.76978 29.1297 0.67 32.83 0.67C36.5303 0.67 39.53 2.76978 39.53 5.36Z" fill="#ADF78E"/>
</svg>
